<svg version="1" xmlns="http://www.w3.org/2000/svg" width="933.333" height="933.333" viewBox="0 0 700.000000 700.000000"><path d="M342.9 9.6c-6.3 1.9-13.1 8.1-15.7 14.3-2 4.8-2.1 6.8-2.2 50.8-.1 53.3-.1 53.3 8.1 61.5 2.7 2.7 4.4 4.6 3.7 4.2-.7-.4-.2.5 1.1 1.9 8.5 9.3 25.7 9.3 35.3 0 7.6-7.5 7.7-7.8 7.7-60.5 0-52 .3-49.8-7-59.5-5.3-7.1-7.6-9.2-12.8-11.5-5.6-2.6-12.3-3-18.2-1.2zM185.5 75.3c-5.1 2-9.9 5.4-12.3 8.7-6.6 8.9-6.9 21.6-.7 30 1.4 1.9 16.3 17.3 33 34.1 16.8 16.8 30.1 30.9 29.7 31.3-.4.4 0 .6.8.4.8-.2 1.4.3 1.5 1.1 0 .8.6 1.6 1.4 1.9.8.3 1.1 0 .7-.7-.5-.7-.1-.9.9-.4 1.1.4 1.3.8.6 1.3-1.7 1 1.9 3.8 7.5 6 19.4 7.3 39.7-11.9 33.4-31.6-.7-2.1-3.1-6.4-5.3-9.4-6.6-8.8-67.6-69.3-72.2-71.5-4.8-2.3-14.8-2.9-19-1.2zM501 74.9c-1.4.4-3.9 1.5-5.7 2.4-4 2.1-65.7 63.9-69.1 69.2-3.3 5.2-4.2 15.6-1.8 21.8 1.7 4.3 8.6 12.7 10.5 12.7.5 0 1.3.4 1.6 1 .4.6-.1.7-1.2.3-1.6-.6-1.6-.5-.4 1.1 3.3 4 12.5 7.5 18.9 7.2 10-.6 12.2-2.3 47.6-37.9 29.5-29.6 33.3-33.8 34.9-38.4 2.1-6 2-13.1-.2-18.5-2.6-5.9-10.6-15.4-15.6-18.3-4.9-2.9-14.7-4.2-19.5-2.6zM441.5 184c.3.6-.1.7-.9.4-1.8-.7-2.1-1.4-.7-1.4.6 0 1.3.4 1.6 1zM414.7 237.1c-9.4 2.2-16.6 8-20.9 16.7-1.8 3.7-2.3 6.3-2.2 12.2 0 6.3.7 9.6 4.8 21 2.6 7.4 7.1 21.1 10 30.5l5.2 17 5.2 3.5c2.9 1.9 5.5 4.3 5.8 5.2.3 1 1.1 1.8 1.7 1.8 3.8.1 14 19 17.5 32.5 3.6 13.7 4.7 37.2 3.1 69.1-.8 15.8-2.7 19.3-10.1 19.4-5.4 0-6.1-1.9-5.3-14.8.7-11.8.8-46.6.2-49.7-.3-1.1-.8-4.6-1.2-7.8-.7-6.5-3.2-14.2-6.3-20.2-2.5-4.9-10.3-15-14-18.2-14-12.1-37.7-8.4-45.2 7.2-2.1 4.4-2.2 5.3-1.5 22.3.5 9.7.8 37.9.8 62.7 0 24.7.3 48.6.8 53 1.5 15.3 1.9 18 3.4 24.7 2.5 11 8.9 27.9 17 44.5 13.3 27.2 22.1 40.7 52.1 79.6 10.1 13 18.9 24.6 19.6 25.6.7 1.1 2.2 2.5 3.5 3.2 1.2.7 2 1.6 1.7 2.1-.8 1.2 2 3.7 6.2 5.4 4.7 2 11.5.5 16-3.4 1.7-1.5 4.9-4.1 7-5.7 2.1-1.7 9.2-7.5 15.8-13 6.7-5.5 20.7-17.2 31.3-25.8 19.7-16.3 21.3-18.1 21.3-25.1 0-1.7-1-4.9-2.1-7.1-1.8-3.3-12.1-16.5-16.5-21.2-2.7-2.8-5.4-8.1-5.9-11.9-.5-2.8.4-8.4 3.3-20.4 2.2-9.1 4.2-18.1 4.6-20 .3-1.9.8-4.6 1.1-6 .3-1.4.8-4.1 1.1-6 .3-1.9.9-5.1 1.4-7 .9-3.3 1.5-7.6 2.6-18 .3-2.5.7-5.6.9-7 2.3-17 2.5-36.9.6-47.5-1.8-9.4-4.5-19.5-7.7-28-1.4-3.9-2.9-8.1-3.4-9.5-4.9-15-29.2-61.1-47.8-90.8-20.5-32.4-42.3-62.7-49.2-68.2-7.7-6.1-18.2-8.9-26.3-6.9zM274.9 239.1c-11.5 1.8-18.9 8.7-37.8 35.4-6.2 8.7-29.1 43.4-29.1 44.1 0 .3-1.3 2.5-3 4.9-1.6 2.4-3 4.6-3 4.8 0 .3-2.6 4.9-5.8 10.4-15.5 26-30.7 59.4-36.6 80.3-4.3 15.3-5.4 23-5 38.4.2 8.3.6 16.7.9 18.6.3 1.9.7 5.7 1 8.5.3 2.7.7 6.7 1 8.7.3 2.1.7 5 .9 6.5 1 7.2 6.1 32.2 9.3 45.3 1.9 8 3.6 15.8 3.8 17.5.7 6.7-2.6 13.4-11.4 23.5-10.6 12.1-12.4 14.9-12.9 20.1-.2 2.7.1 6.2.8 7.9.7 1.8 6.7 7.6 15.1 14.6 7.7 6.3 13.9 11.8 13.9 12 0 .3-3.4-2.3-7.5-5.8-10.4-8.7-13.5-11.1-13.5-10.6 0 .9 20.4 17.3 21.2 17 1-.3 41.8 33.4 41.8 34.4 0 .3-3.6-2.4-7.9-6-4.3-3.6-8.2-6.6-8.6-6.6-.4 0 3 3 7.6 6.8 4.6 3.7 8.7 6.6 9.2 6.4.5-.1 2.2.9 3.9 2.3 1.6 1.4 2.6 2.5 2.2 2.5-.4 0-1.7-.8-2.9-1.8-1.2-.9-.1.2 2.4 2.5 5.3 5 9.8 6.7 15.3 6 5.9-.8 6-1 33.6-36.3 3.9-5.2 8.4-11.1 10-13.2 1.5-2.2 5.9-8.5 9.9-14 24.1-33.9 44.5-79.4 46.9-104.7.2-2.8.7-6.8 1.1-9 .3-2.2.7-29.7.9-61 .1-31.4.5-58.6.8-60.5.9-6.9.8-14.6-.3-17.5-2.6-6.3-10.7-15.1-17.6-18.8-5.8-3.1-19.1-3.1-25.7.1-12.2 5.8-21.1 21.1-23.5 40.2-.7 6.1-.9 37.1-.4 57.7.2 8 0 9.8-1.8 12.7-2.5 4-6.4 5.7-10.3 4.4-2.7-.9-2.8-1.2-2.9-8.6-.7-35.4-.6-58.6.2-62.1.5-2.3 1.2-5.8 1.5-7.9 1.6-10 7.4-23.6 13.7-31.4 4.8-6.1 7.7-8.8 13.3-12.5 3.7-2.3 4.3-3.4 6.3-10.2 6.6-22.6 7.2-24.7 15.8-48.4 4.5-12.6 3-22.2-5.5-33.2-8.8-11.7-19-16.4-31.3-14.4z"/><path d="M416 339.8c0 .4 1.5 1.6 3.3 2.6l3.2 1.9-2.4-2.6c-2.4-2.7-4.1-3.4-4.1-1.9zM178 642.4c0 .6 22.6 19.6 23.4 19.6.4 0-2.4-2.5-6.1-5.7-3.8-3.1-9.2-7.6-12-10-2.9-2.5-5.3-4.2-5.3-3.9z"/></svg>