<?xml version="1.0" encoding="utf-8"?>
<!-- Generator: Adobe Illustrator 18.0.0, SVG Export Plug-In . SVG Version: 6.00 Build 0)  -->
<!DOCTYPE svg PUBLIC "-//W3C//DTD SVG 1.1//EN" "http://www.w3.org/Graphics/SVG/1.1/DTD/svg11.dtd">
<svg version="1.1" id="Capa_1" xmlns="http://www.w3.org/2000/svg" xmlns:xlink="http://www.w3.org/1999/xlink" x="0px" y="0px"
	 viewBox="0 0 595.3 595.3" enable-background="new 0 0 595.3 595.3" xml:space="preserve">
<path id="fb" fill="#3B5998" d="M65.3,35.1h464.4c15.1,0,30.3,15.1,30.3,30.3v464.4c0,15.1-15.1,30.3-30.3,30.3H393.4V358.2h70.7
	l10.1-80.8h-80.8V227c0-25.2,5-40.4,40.4-40.4h40.4v-70.7c-5,0-30.3-5-60.6-5c-60.6,0-101,35.3-101,106v60.6H242v80.8h70.7v201.9
	H65.3C50.1,560.1,35,545,35,529.8V60.4C40,45.2,50.1,35.1,65.3,35.1z"/>
</svg>
