<?xml version="1.0" encoding="utf-8"?>
<!-- Generator: Adobe Illustrator 18.0.0, SVG Export Plug-In . SVG Version: 6.00 Build 0)  -->
<!DOCTYPE svg PUBLIC "-//W3C//DTD SVG 1.1//EN" "http://www.w3.org/Graphics/SVG/1.1/DTD/svg11.dtd">
<svg version="1.1" id="Layer_1" xmlns="http://www.w3.org/2000/svg" xmlns:xlink="http://www.w3.org/1999/xlink" x="0px" y="0px"
	 viewBox="0 0 595.3 595.3" enable-background="new 0 0 595.3 595.3" xml:space="preserve">
<path d="M327.4,120.9c8.8,0,18.6-1,28.2-3c15.9-3.2,30.4-8.8,40.8-15.5c7.1-4.6,18.7-14,16.3-25.8C410.3,64.7,395.5,58,372.1,58
	c-9,0-18.4,1-28.2,3c-15.9,3.2-30.4,8.8-40.8,15.5c-7.1,4.6-18.7,14-16.3,25.8C289.2,114.1,304,120.9,327.4,120.9z M310.3,87.8
	c9.1-5.9,22-10.7,36.3-13.6c8.7-1.8,17.5-2.7,25.5-2.7c17.8,0,26.8,4.6,27.4,7.8c0.4,2.2-2.6,6.8-10.4,11.8
	c-9.1,5.9-22,10.7-36.3,13.6c-8.7,1.8-17.5,2.7-25.5,2.7c-17.8,0-26.8-4.6-27.4-7.8C299.5,97.5,302.6,92.8,310.3,87.8z M490.9,366.3
	c-2-30.2-19.8-61.2-52.8-92.1c-15.3-14.4-30.3-25.2-39.4-31.3c12.6-10.1,21.4-24.9,23.6-41.8c1.2-0.1,2.4-0.5,3.4-1.2
	c1.7-1.2,2.8-3.2,2.8-5.3c0-0.6,0-1.2,0-1.8c0-38.6-31.4-70-70-70c-38.6,0-70,31.4-70,70c0,8.4,1.5,16.6,4.4,24.4
	c1,2.7,3.5,4.4,6.3,4.4c0.4,0,0.8,0,1.1-0.1c0.2,0,0.4-0.1,0.6-0.1c4.1,8.3,10,15.6,17.3,21.5c-2.4,1.9-7.2,6.1-12.9,12.4
	c-17.6-33.7-37.7-63.4-59.9-88.3c-15-16.9-29.6-29.8-44.6-39.6c-0.7-0.5-1.4-0.9-2.1-1.4c-12.7-8.3-30-19.8-47.1-13.2
	c-8.9,3.4-15.6,10.4-18.4,19.3c-2,6.1-1.5,13-0.2,19.3c-13.4-3.6-28.2-5.5-40.6,1.1c-9.5,5-15.6,13.3-16.9,22.7
	c-1.9,14.1,9.7,29,17.4,38.8l1,1.3c6,7.7,13.2,13.3,20.7,18.3c-2.3,0.5-4.7,1.5-7.2,3c-9.2,5.9-13.5,16.9-11.7,30
	c2.6,19.1,13.2,32.6,31.8,40.3c6.3,2.6,13.4,4.5,21.5,5.7c-4.2,4.3-7.2,9.5-8.4,15c-2.4,11.5,3.9,22,16.8,27.9c7,3.2,16.4,4,25.1,4
	c4.8,0,9.5-0.2,13.4-0.4c8.4-0.4,16.6-1.9,24.5-3.3c5.9-1,11.5-2,17.2-2.6c0.9-0.1,1.9-0.2,2.8-0.3c9.6-1.1,18.6-2.1,26.6,0.7
	c1.5,0.5,3.1,0.4,4.6-0.1c2,20.4,9.2,36.7,21.3,48.5c0.3,12.8-0.3,25.7-2,38.5l-1.4,7c-0.1,0.4-0.3,0.6-0.3,0.7
	c-0.9,0.4-4.5,0.6-7.3,0.7c-1,0-2,0.1-3.1,0.1l-0.5,0c-11.4,0.5-27,1.2-34.6,15.6c-1,1.8-1.7,3.6-2.5,5.4c-4.2-0.5-8.7-1-12.8,0.5
	c-7.7,2.7-12.3,11.5-16.7,17.9c-6.9,10-16.2,22.3-18.3,34.6c-2.8,17.3,27.8,11.3,39.5,2.3c5.2,10,15.4,14.8,19.5,16.7
	c9.7,4.5,19.8,6.7,29.6,8.9c4.4,1,8.9,2,13.3,3.1c1.9,0.5,3.8,1,5.7,1.6c13.7,3.8,26.6,7.4,42.2,7.6c1.8,0,3.6,0,5.4,0
	c18.3,0,37.5-1.5,57-4.6c2.4-0.4,5.3-0.7,8.3-1c14.2-1.4,32-3.2,40.1-16.6c7.8-12.8,8.4-31.2,9-46.1c0.1-3.3,0.2-6.4,0.4-9.3
	c1.5-24.2,1.4-47.8-0.3-70.2c4.9-1.2,10-3.3,14.6-7.2C487.7,399.2,492.1,385.3,490.9,366.3z M303.7,206.8c-1.2-4.6-1.8-9.3-1.8-14.1
	c0-31.2,25.4-56.5,56.5-56.5c28.4,0,51.9,21,55.9,48.3c-2.9-1.3-5.7-2.7-8.4-4.2c-7.3-4.2-12.5-8.2-16.4-12.6c-2.7-3-5-6.4-7.5-10
	c-1.9-2.7-3.8-5.5-5.9-8.2c-1.7-2.2-4.3-3.4-7.1-3.4c-3.2,0-6.4,1.7-8.2,4.4l-2,2.9C344.7,174.1,327.4,199.5,303.7,206.8z
	 M314.1,217.3c9.6-4.1,18-10.4,25.6-17.8c0.8,1,1.7,1.9,2.5,2.8c0.6,0.5,1.2,1.1,1.8,1.6c0.3,0.3,0.6,0.5,0.9,0.7
	c0.3,0.2,0.6,0.5,0.9,0.7c2.5,1.8,5.1,3.4,7.8,4.7c1,0.5,2.3,0.5,3.4,0l0,0c2.7-1.3,5.3-2.8,7.8-4.6c0.6-0.5,1.2-0.9,1.8-1.4
	c0.6-0.5,1.2-1,1.8-1.6c1.1-1.1,2.2-2.3,3.2-3.7c-1.7-0.2-3.3,0-4.9,0.1c-0.8,0.1-1.6,0.2-2.3,0.4c-0.8,0.1-1.5,0.3-2.3,0.5
	c-2.4,0.6-4.6,1.3-6.8,2.3c-2.2-0.9-4.4-1.7-6.8-2.3c-0.4-0.1-0.8-0.1-1.1-0.2c-0.4-0.1-0.8-0.2-1.1-0.2c-0.8-0.1-1.5-0.3-2.3-0.4
	c-1-0.1-2.1-0.2-3.2-0.2c10.9-11,20.1-24.2,28.2-36.1c0.7,1,1.4,1.9,2.1,2.9c2.6,3.7,5.3,7.6,8.5,11.2c4.9,5.6,11.2,10.5,19.9,15.4
	c3.1,1.8,6.4,3.4,9.8,4.9c0,0.6-0.1,1.2-0.2,1.8c-0.4,0-0.8,0.1-1.2,0.1c-0.8,0.1-1.6,0.2-2.3,0.4c-0.8,0.1-1.5,0.3-2.3,0.5
	c-2.4,0.6-4.6,1.3-6.8,2.3c-2.2-0.9-4.4-1.7-6.8-2.3c-0.4-0.1-0.8-0.1-1.1-0.2c-0.4-0.1-0.8-0.2-1.1-0.2c-0.8-0.1-1.5-0.3-2.3-0.4
	c-1.6-0.2-3.2-0.3-4.9-0.2c1,1.4,2.1,2.6,3.2,3.7c0.6,0.5,1.2,1.1,1.8,1.6c0.3,0.3,0.6,0.5,0.9,0.7c0.3,0.2,0.6,0.5,0.9,0.7
	c2.5,1.8,5.1,3.4,7.8,4.7c1,0.5,2.3,0.5,3.4,0l0,0c2.7-1.3,5.3-2.8,7.8-4.6c0.6-0.5,1.2-0.9,1.8-1.4c0.2-0.1,0.3-0.3,0.5-0.4
	c-3.1,14-11.9,25.8-23.8,32.9c-1,0.3-1.9,0.8-2.7,1.5c-7,3.6-14.8,5.6-23.2,5.6c-10.4,0-20.5-3.1-29-9
	C323,229.9,317.8,224.1,314.1,217.3z M146,136.1c1.6-4.9,5.4-8.9,10.4-10.8c10.6-4.1,24,4.8,34.8,11.9c0.7,0.5,1.5,1,2.2,1.4
	c13.9,9.1,27.6,21.3,41.9,37.3c16.8,18.9,32.4,40.6,46.6,64.8c-22.2-20.6-45.4-38.6-69.4-53.7c-21.5-13.5-41.4-23.3-61.1-29.9
	c-0.9-0.3-1.9-0.6-2.8-1c-0.1,0-0.3-0.1-0.4-0.1C145.3,147.1,144.6,140.6,146,136.1z M271,340.3c-10.7-3.5-22-2.3-32.1-1.2
	c-0.9,0.1-1.9,0.2-2.8,0.3c-6.1,0.7-12.2,1.7-18.1,2.8c-7.9,1.4-15.3,2.7-22.9,3.1c-9.1,0.5-24.3,1.3-32.2-2.4
	c-7.2-3.3-10.3-7.6-9.2-12.9c1.6-7.5,11.6-16.1,22.6-16.2c3.7-0.1,6.7-3.1,6.6-6.8c-0.1-3.7-3.1-6.6-6.7-6.6h-0.1c0,0,0,0,0,0
	c-18.4,0-32.7-1.8-43.5-6.2c-14-5.8-21.7-15.5-23.6-29.6c-0.5-3.7-0.9-12.6,5.7-16.9c3-1.9,5.4-1.6,10.2-0.8
	c4.3,0.8,9.7,1.7,15.7-0.5c2.4-0.9,4.1-3,4.4-5.6c0.3-2.5-0.9-5-3-6.4c-3.3-2.1-6.7-4.1-9.9-6.1c-10.5-6.3-20.4-12.2-27.6-21.5
	l-1-1.3c-5.9-7.6-15.8-20.2-14.7-28.7c0.7-5,4.3-9.6,9.8-12.5c12.4-6.6,31.6-0.1,45.6,4.7c1,0.3,1.9,0.7,2.9,1
	c18.6,6.2,37.6,15.6,58.2,28.5c30.7,19.3,60.2,43.6,87.8,72.2c-14.3,20.9-21.9,44.5-22.2,68.5C271,339.5,271,339.9,271,340.3z
	 M450,484.2c-0.2,3-0.3,6.3-0.4,9.7c-0.5,13.3-1,29.8-7,39.6c-4.6,7.6-18.7,9-30,10.2c-3.2,0.3-6.3,0.6-9,1.1
	c-20.7,3.2-41,4.7-60.1,4.4c-13.9-0.2-25.5-3.4-38.9-7.1c-1.9-0.5-3.8-1.1-5.8-1.6c-4.7-1.3-9.4-2.3-13.9-3.3
	c-9.5-2.1-18.5-4.1-26.8-7.9c-9.9-4.6-14.3-9.5-14.8-16.5c-0.6-8.8,1.8-19.1,7.1-30.5c0.8-1.8,1.6-3.6,2.3-5.3
	c0.9-2.3,1.8-4.5,2.9-6.6c3.7-7,11.3-7.9,23.3-8.4l0.5,0c1.1,0,2.1-0.1,3-0.1c1.5-0.1,2.9-0.1,4.2-0.2l-4.5,21.7
	c-0.8,3.6,1.6,7.2,5.2,7.9c0.5,0.1,0.9,0.1,1.4,0.1c3.1,0,5.9-2.2,6.6-5.4l7.4-35.7c0.7-2.4,1.3-5.1,1.7-8.2
	c1.3-10,2.1-20.2,2.2-30.3c16.2,9.4,37.8,14.1,65.6,14.1c6.8,0,13.9-0.3,21.5-0.8c2.7-0.2,5-2,5.9-4.6c0.9-2.6,0.1-5.4-1.9-7.2
	c0,0-0.2-0.2-0.5-0.4c4.9-0.1,11-0.2,17.3-0.7c10-0.7,17.3-1.8,22.7-3.2c0.1,1,0.3,1.9,0.8,2.8c0.9,1.7,2.5,2.9,4.3,3.4
	c0.3,0.1,3.2,0.8,7.5,1C451.3,437.7,451.4,460.7,450,484.2z M385.6,399.3c-4.9-7.1-9.5-16.4-10.1-26.3c-0.1-1.7-0.1-3.3,0.1-4.9
	c4.4,1.5,10.5,3,17.3,3c4.9,0,10.2-0.8,15.4-2.9c2,5.5,4.1,15.6,0.9,30.8c-12.1,0.6-22.8,0.3-22.9,0.3c-0.1,0-0.1,0-0.2,0
	C386,399.2,385.8,399.3,385.6,399.3z M422.4,368.2c7.9,0,14.8-2.9,20-6.9c0.9,4.5,1.2,9.7,0.9,15.6c-0.3,5.4-1.1,10.7-2.1,15.2
	c-0.2,0.3-0.5,0.6-0.7,0.9c-0.3,0.4-3.3,3-17.4,4.7C425.3,385,424.2,375.2,422.4,368.2z M469.1,397.3c-5,4.3-11.5,5.2-16.5,5.2
	c1.6-6.1,3.6-15,4.1-24.7c1.8-31-11.8-43.6-23.5-48.7c-3.4-1.5-7.4,0.1-8.9,3.5c-1.5,3.4,0.1,7.4,3.5,8.9c3.6,1.6,6.5,3.8,8.9,6.8
	c-3,3.3-10.7,9.6-22.8,4.6c-0.1-0.1-0.3-0.1-0.4-0.1c-0.1,0-0.1,0-0.2-0.1c-0.4-0.1-0.7-0.2-1.1-0.2c-0.1,0-0.1,0-0.2,0
	c-0.4,0-0.7,0-1.1,0c0,0-0.1,0-0.1,0c-0.4,0-0.8,0.1-1.1,0.2c-0.1,0-0.2,0-0.2,0.1c-0.4,0.1-0.7,0.2-1.1,0.4c0,0-0.1,0.1-0.1,0.1
	c-0.2,0.1-0.3,0.2-0.5,0.3c-10,6.3-21.6,4-28,1.8c1.6-2.8,3.5-5.5,6-8.2c2.5-2.7,2.3-7-0.4-9.5c-2.7-2.5-7-2.3-9.5,0.4
	c-9.7,10.6-14.3,22.7-13.7,35.7c0.8,15.7,9.2,29.5,16.3,38.5c-35.6,0.9-60.4-5.6-75.5-19.8c-12.6-11.8-18.6-29.3-18.4-53.2
	c0.2-22.7,7.5-44.2,21.7-63.8c10.7-14.8,21.5-23,21.6-23.1c0.8-0.6,1.5-1.4,1.9-2.3c8.9,4.4,18.7,6.8,28.8,6.8
	c9.9,0,19.2-2.2,27.5-6.2c16.3,10.5,87.6,59.4,91.4,116.5C478.4,381.6,475.6,391.8,469.1,397.3z M257.1,128.9
	c-3.2,1.9-4.3,6-2.5,9.2c1.2,2.2,3.5,3.4,5.8,3.4c1.1,0,2.3-0.3,3.4-0.9l17-9.8c3.2-1.9,4.3-6,2.5-9.2c-1.9-3.2-6-4.3-9.2-2.5
	L257.1,128.9z M421.1,115.5l19.1,9.4c1,0.5,2,0.7,3,0.7c2.5,0,4.9-1.4,6-3.8c1.6-3.3,0.3-7.4-3.1-9l-19.1-9.4
	c-3.3-1.6-7.4-0.3-9,3.1C416.4,109.9,417.8,113.9,421.1,115.5z M432,70.9c0.7,0,1.3-0.1,2-0.3l22.4-7c3.5-1.1,5.5-4.9,4.4-8.4
	c-1.1-3.5-4.9-5.5-8.4-4.4l-22.4,7c-3.5,1.1-5.5,4.9-4.4,8.4C426.5,69.1,429.2,70.9,432,70.9z M367.8,50.6c0.7,0.2,1.4,0.3,2.1,0.3
	c2.8,0,5.5-1.8,6.4-4.6l7.5-22.8c1.2-3.5-0.8-7.3-4.3-8.5c-3.5-1.2-7.3,0.8-8.5,4.3l-7.5,22.8C362.4,45.7,364.3,49.5,367.8,50.6z
	 M309.2,50.4c1.3,2.1,3.5,3.3,5.8,3.3c1.2,0,2.4-0.3,3.5-1c3.2-1.9,4.2-6,2.3-9.2l-15.5-25.8c-1.9-3.2-6-4.2-9.2-2.3
	c-3.2,1.9-4.2,6-2.3,9.2L309.2,50.4z M242.2,88.1l25,5.6c0.5,0.1,1,0.2,1.5,0.2c3.1,0,5.9-2.1,6.6-5.3c0.8-3.6-1.5-7.2-5.1-8
	l-25-5.6c-3.6-0.8-7.2,1.5-8,5.1S238.6,87.3,242.2,88.1z"/>
</svg>
