<?xml version="1.0" encoding="utf-8"?>
<!-- Generator: Adobe Illustrator 18.0.0, SVG Export Plug-In . SVG Version: 6.00 Build 0)  -->
<!DOCTYPE svg PUBLIC "-//W3C//DTD SVG 1.1//EN" "http://www.w3.org/Graphics/SVG/1.1/DTD/svg11.dtd">
<svg version="1.1" id="Capa_1" xmlns="http://www.w3.org/2000/svg" xmlns:xlink="http://www.w3.org/1999/xlink" x="0px" y="0px"
	 viewBox="0 0 595.3 595.3" enable-background="new 0 0 595.3 595.3" xml:space="preserve">
<path id="tw" fill="#55ACEE" d="M581.2,118.2c-14.8,24.6-34.4,44.3-59,59c0,4.9,0,9.8,0,14.8c0,152.4-118,329.4-329.4,329.4
	c-68.8,0-127.8-19.7-177-49.2c9.8,0,19.7,0,29.5,0c54.1,0,103.3-19.7,142.6-49.2c-49.2,0-93.4-34.4-108.2-78.7c9.8,0,14.8,0,24.6,0
	s24.6,0,29.5-4.9c-54.1-9.8-93.4-59-93.4-113.1l0,0c14.8,9.8,34.4,14.8,54.1,14.8c-29.5-24.6-49.2-59-49.2-93.4
	c0-24.6,4.9-39.3,14.8-59c59,68.8,142.6,118,240.9,122.9c-4.9-9.8-4.9-14.8-4.9-24.6c0-63.9,49.2-113.1,118-113.1
	c34.4,0,63.9,14.8,83.6,39.3c24.6-4.9,49.2-14.8,73.8-29.5c-9.8,24.6-29.5,49.2-49.2,63.9C541.9,132.9,561.5,128,581.2,118.2z"/>
</svg>
