<?xml version="1.0" standalone="no"?>
<!DOCTYPE svg PUBLIC "-//W3C//DTD SVG 20010904//EN"
 "http://www.w3.org/TR/2001/REC-SVG-20010904/DTD/svg10.dtd">
<svg version="1.0" xmlns="http://www.w3.org/2000/svg"
 width="512.000000pt" height="512.000000pt" viewBox="0 0 512.000000 512.000000"
 preserveAspectRatio="xMidYMid meet">
<metadata>
Created by potrace 1.14, written by Peter Selinger 2001-2017
</metadata>
<g transform="translate(0.000000,512.000000) scale(0.100000,-0.100000)"
fill="#000000" stroke="none">
<path d="M1937 5098 c-68 -43 -79 -73 -77 -217 1 -69 3 -153 5 -186 1 -33 6
-141 10 -240 3 -99 8 -216 10 -260 2 -44 7 -160 10 -259 8 -199 13 -189 -64
-128 -161 129 -331 257 -360 269 -93 40 -198 -29 -208 -134 -5 -47 1 -61 116
-286 l121 -237 -32 5 c-18 3 -53 10 -78 15 -25 5 -98 19 -162 30 -65 11 -281
49 -480 85 -200 35 -378 62 -396 60 -101 -13 -165 -118 -128 -211 20 -48 41
-64 231 -184 83 -51 173 -108 200 -125 28 -18 124 -78 215 -135 91 -57 209
-131 262 -164 54 -34 98 -63 98 -66 0 -3 -138 -59 -305 -124 -318 -124 -344
-139 -372 -205 -34 -80 25 -189 111 -205 31 -6 292 -2 628 8 l68 2 -18 -28
c-9 -16 -195 -285 -412 -599 -217 -314 -403 -591 -413 -616 -24 -63 -14 -113
33 -162 44 -46 99 -60 156 -41 20 7 131 74 245 149 511 334 999 651 1002 651
1 0 2 -276 2 -614 0 -605 0 -615 21 -642 63 -85 167 -101 236 -36 31 29 41 48
211 422 69 151 139 304 155 340 16 36 53 117 82 180 29 63 63 139 76 168 18
39 28 51 37 44 19 -14 747 -552 1107 -817 179 -132 330 -243 335 -248 68 -53
415 -307 450 -329 109 -68 251 18 239 146 -3 39 -24 72 -511 796 -87 129 -310
460 -495 736 l-336 501 366 158 c202 87 385 166 407 176 81 36 152 66 219 94
38 16 84 45 102 63 65 67 51 182 -28 234 -33 22 -77 28 -244 34 -82 3 -171 7
-199 9 -27 2 -129 7 -225 10 -96 4 -186 9 -200 11 -14 1 -38 3 -53 3 -32 1
-30 10 18 63 17 18 50 58 75 88 25 30 47 57 50 60 3 3 58 66 121 140 62 74
124 146 135 160 332 385 540 633 552 657 20 37 18 106 -4 143 -28 48 -66 72
-121 77 -49 5 -90 -12 -283 -119 -43 -24 -121 -67 -205 -113 -22 -12 -193
-106 -380 -208 -187 -102 -380 -208 -430 -235 -49 -28 -91 -49 -92 -48 -2 1
11 58 28 127 17 68 32 131 34 139 2 8 12 54 24 101 27 112 27 157 -2 200 -26
40 -100 81 -134 74 -12 -3 -33 -7 -46 -10 -41 -8 -80 -53 -253 -290 -82 -112
-126 -170 -132 -172 -4 -2 -49 99 -101 225 -52 125 -111 268 -132 317 -21 50
-83 200 -139 335 -144 348 -146 352 -186 379 -51 35 -119 38 -167 9z"/>
</g>
</svg>
